<mxfile host="app.diagrams.net" modified="2023-04-30T16:11:01.900Z" agent="Mozilla/5.0 (Windows NT 10.0; Win64; x64) AppleWebKit/537.36 (KHTML, like Gecko) Chrome/112.0.0.0 Safari/537.36" etag="B9tYDgyVBAzcgaeWNdQ1" version="21.2.3" type="device">
  <diagram name="Page-1" id="2YBvvXClWsGukQMizWep">
    <mxGraphModel dx="1221" dy="629" grid="1" gridSize="10" guides="1" tooltips="1" connect="1" arrows="1" fold="1" page="1" pageScale="1" pageWidth="850" pageHeight="1100" math="0" shadow="0">
      <root>
        <mxCell id="0" />
        <mxCell id="1" parent="0" />
        <mxCell id="9p6SRBUoq3Xx-q3KXIgF-1" value="Admin" style="shape=umlActor;verticalLabelPosition=bottom;verticalAlign=top;html=1;outlineConnect=0;" parent="1" vertex="1">
          <mxGeometry x="90" y="40" width="30" height="60" as="geometry" />
        </mxCell>
        <mxCell id="9p6SRBUoq3Xx-q3KXIgF-2" value="" style="endArrow=none;html=1;rounded=0;dashed=1;" parent="1" edge="1">
          <mxGeometry width="50" height="50" relative="1" as="geometry">
            <mxPoint x="100" y="680" as="sourcePoint" />
            <mxPoint x="105" y="100" as="targetPoint" />
          </mxGeometry>
        </mxCell>
        <mxCell id="9p6SRBUoq3Xx-q3KXIgF-7" value="View" style="rounded=0;whiteSpace=wrap;html=1;" parent="1" vertex="1">
          <mxGeometry x="200" y="50" width="120" height="50" as="geometry" />
        </mxCell>
        <mxCell id="9p6SRBUoq3Xx-q3KXIgF-8" value=":ContractController" style="rounded=0;whiteSpace=wrap;html=1;" parent="1" vertex="1">
          <mxGeometry x="380" y="50" width="120" height="50" as="geometry" />
        </mxCell>
        <mxCell id="9p6SRBUoq3Xx-q3KXIgF-9" value=":ContractService" style="rounded=0;whiteSpace=wrap;html=1;" parent="1" vertex="1">
          <mxGeometry x="550" y="50" width="120" height="50" as="geometry" />
        </mxCell>
        <mxCell id="9p6SRBUoq3Xx-q3KXIgF-10" value=":ContractRepository" style="rounded=0;whiteSpace=wrap;html=1;" parent="1" vertex="1">
          <mxGeometry x="730" y="50" width="120" height="50" as="geometry" />
        </mxCell>
        <mxCell id="9p6SRBUoq3Xx-q3KXIgF-11" value="Database" style="rounded=0;whiteSpace=wrap;html=1;" parent="1" vertex="1">
          <mxGeometry x="900" y="50" width="120" height="50" as="geometry" />
        </mxCell>
        <mxCell id="9p6SRBUoq3Xx-q3KXIgF-15" value="" style="endArrow=none;dashed=1;html=1;rounded=0;" parent="1" edge="1">
          <mxGeometry width="50" height="50" relative="1" as="geometry">
            <mxPoint x="260" y="140" as="sourcePoint" />
            <mxPoint x="260" y="90" as="targetPoint" />
          </mxGeometry>
        </mxCell>
        <mxCell id="9p6SRBUoq3Xx-q3KXIgF-16" value="" style="rounded=0;whiteSpace=wrap;html=1;" parent="1" vertex="1">
          <mxGeometry x="255" y="140" width="10" height="540" as="geometry" />
        </mxCell>
        <mxCell id="9p6SRBUoq3Xx-q3KXIgF-17" value="" style="rounded=0;whiteSpace=wrap;html=1;" parent="1" vertex="1">
          <mxGeometry x="605" y="190" width="10" height="310" as="geometry" />
        </mxCell>
        <mxCell id="9p6SRBUoq3Xx-q3KXIgF-18" value="" style="rounded=0;whiteSpace=wrap;html=1;" parent="1" vertex="1">
          <mxGeometry x="435" y="170" width="10" height="350" as="geometry" />
        </mxCell>
        <mxCell id="9p6SRBUoq3Xx-q3KXIgF-19" value="" style="rounded=0;whiteSpace=wrap;html=1;" parent="1" vertex="1">
          <mxGeometry x="785" y="210" width="10" height="270" as="geometry" />
        </mxCell>
        <mxCell id="9p6SRBUoq3Xx-q3KXIgF-20" value="" style="rounded=0;whiteSpace=wrap;html=1;" parent="1" vertex="1">
          <mxGeometry x="955" y="250" width="10" height="210" as="geometry" />
        </mxCell>
        <mxCell id="9p6SRBUoq3Xx-q3KXIgF-22" value="" style="endArrow=none;dashed=1;html=1;rounded=0;exitX=0.5;exitY=0;exitDx=0;exitDy=0;" parent="1" source="9p6SRBUoq3Xx-q3KXIgF-18" edge="1">
          <mxGeometry width="50" height="50" relative="1" as="geometry">
            <mxPoint x="439.58" y="140" as="sourcePoint" />
            <mxPoint x="440" y="90" as="targetPoint" />
          </mxGeometry>
        </mxCell>
        <mxCell id="9p6SRBUoq3Xx-q3KXIgF-23" value="" style="endArrow=none;dashed=1;html=1;rounded=0;entryX=0.5;entryY=0.8;entryDx=0;entryDy=0;exitX=0.5;exitY=0;exitDx=0;exitDy=0;entryPerimeter=0;" parent="1" source="9p6SRBUoq3Xx-q3KXIgF-17" target="9p6SRBUoq3Xx-q3KXIgF-9" edge="1">
          <mxGeometry width="50" height="50" relative="1" as="geometry">
            <mxPoint x="609.29" y="140" as="sourcePoint" />
            <mxPoint x="609.29" y="100" as="targetPoint" />
          </mxGeometry>
        </mxCell>
        <mxCell id="9p6SRBUoq3Xx-q3KXIgF-24" value="" style="endArrow=none;dashed=1;html=1;rounded=0;entryX=0.5;entryY=1;entryDx=0;entryDy=0;exitX=0.5;exitY=0;exitDx=0;exitDy=0;" parent="1" source="9p6SRBUoq3Xx-q3KXIgF-19" edge="1">
          <mxGeometry width="50" height="50" relative="1" as="geometry">
            <mxPoint x="789.29" y="140" as="sourcePoint" />
            <mxPoint x="789.29" y="100" as="targetPoint" />
          </mxGeometry>
        </mxCell>
        <mxCell id="9p6SRBUoq3Xx-q3KXIgF-25" value="" style="endArrow=none;dashed=1;html=1;rounded=0;exitX=0.5;exitY=0;exitDx=0;exitDy=0;entryX=0.5;entryY=0.8;entryDx=0;entryDy=0;entryPerimeter=0;" parent="1" source="9p6SRBUoq3Xx-q3KXIgF-20" target="9p6SRBUoq3Xx-q3KXIgF-11" edge="1">
          <mxGeometry width="50" height="50" relative="1" as="geometry">
            <mxPoint x="959.29" y="140" as="sourcePoint" />
            <mxPoint x="960" y="120" as="targetPoint" />
          </mxGeometry>
        </mxCell>
        <mxCell id="9p6SRBUoq3Xx-q3KXIgF-26" value="" style="endArrow=classic;html=1;rounded=0;entryX=0.5;entryY=0.052;entryDx=0;entryDy=0;entryPerimeter=0;" parent="1" target="9p6SRBUoq3Xx-q3KXIgF-16" edge="1">
          <mxGeometry width="50" height="50" relative="1" as="geometry">
            <mxPoint x="100" y="168" as="sourcePoint" />
            <mxPoint x="170" y="160" as="targetPoint" />
            <Array as="points">
              <mxPoint x="180" y="168" />
            </Array>
          </mxGeometry>
        </mxCell>
        <mxCell id="9p6SRBUoq3Xx-q3KXIgF-27" value="1.Select Contract to form" style="edgeLabel;html=1;align=center;verticalAlign=middle;resizable=0;points=[];" parent="9p6SRBUoq3Xx-q3KXIgF-26" vertex="1" connectable="0">
          <mxGeometry x="-0.1757" y="1" relative="1" as="geometry">
            <mxPoint x="6" y="-17" as="offset" />
          </mxGeometry>
        </mxCell>
        <mxCell id="9p6SRBUoq3Xx-q3KXIgF-28" value="" style="endArrow=classic;html=1;rounded=0;entryX=0.044;entryY=0.088;entryDx=0;entryDy=0;entryPerimeter=0;" parent="1" target="9p6SRBUoq3Xx-q3KXIgF-18" edge="1">
          <mxGeometry width="50" height="50" relative="1" as="geometry">
            <mxPoint x="260" y="200" as="sourcePoint" />
            <mxPoint x="320" y="150" as="targetPoint" />
          </mxGeometry>
        </mxCell>
        <mxCell id="9p6SRBUoq3Xx-q3KXIgF-29" value="3.getContractById()" style="edgeLabel;html=1;align=center;verticalAlign=middle;resizable=0;points=[];" parent="9p6SRBUoq3Xx-q3KXIgF-28" vertex="1" connectable="0">
          <mxGeometry x="-0.2571" y="-2" relative="1" as="geometry">
            <mxPoint x="13" y="-22" as="offset" />
          </mxGeometry>
        </mxCell>
        <mxCell id="9p6SRBUoq3Xx-q3KXIgF-30" value="" style="endArrow=classic;html=1;rounded=0;entryX=-0.009;entryY=0.121;entryDx=0;entryDy=0;entryPerimeter=0;exitX=0.943;exitY=0.161;exitDx=0;exitDy=0;exitPerimeter=0;" parent="1" source="9p6SRBUoq3Xx-q3KXIgF-18" target="9p6SRBUoq3Xx-q3KXIgF-17" edge="1">
          <mxGeometry width="50" height="50" relative="1" as="geometry">
            <mxPoint x="470" y="240" as="sourcePoint" />
            <mxPoint x="520" y="190" as="targetPoint" />
          </mxGeometry>
        </mxCell>
        <mxCell id="9p6SRBUoq3Xx-q3KXIgF-31" value="4.findById()" style="edgeLabel;html=1;align=center;verticalAlign=middle;resizable=0;points=[];" parent="9p6SRBUoq3Xx-q3KXIgF-30" vertex="1" connectable="0">
          <mxGeometry x="0.1868" y="-2" relative="1" as="geometry">
            <mxPoint x="-20" y="-21" as="offset" />
          </mxGeometry>
        </mxCell>
        <mxCell id="9p6SRBUoq3Xx-q3KXIgF-32" value="" style="endArrow=classic;html=1;rounded=0;" parent="1" edge="1">
          <mxGeometry width="50" height="50" relative="1" as="geometry">
            <mxPoint x="610" y="240" as="sourcePoint" />
            <mxPoint x="790" y="240" as="targetPoint" />
          </mxGeometry>
        </mxCell>
        <mxCell id="9p6SRBUoq3Xx-q3KXIgF-33" value="5.findById()" style="edgeLabel;html=1;align=center;verticalAlign=middle;resizable=0;points=[];" parent="9p6SRBUoq3Xx-q3KXIgF-32" vertex="1" connectable="0">
          <mxGeometry x="0.1082" relative="1" as="geometry">
            <mxPoint x="-12" y="-11" as="offset" />
          </mxGeometry>
        </mxCell>
        <mxCell id="9p6SRBUoq3Xx-q3KXIgF-34" value="" style="endArrow=classic;html=1;rounded=0;entryX=0.16;entryY=0.041;entryDx=0;entryDy=0;entryPerimeter=0;" parent="1" target="9p6SRBUoq3Xx-q3KXIgF-20" edge="1">
          <mxGeometry width="50" height="50" relative="1" as="geometry">
            <mxPoint x="790" y="259" as="sourcePoint" />
            <mxPoint x="860" y="220" as="targetPoint" />
          </mxGeometry>
        </mxCell>
        <mxCell id="9p6SRBUoq3Xx-q3KXIgF-35" value="6.executeQuery()" style="edgeLabel;html=1;align=center;verticalAlign=middle;resizable=0;points=[];" parent="9p6SRBUoq3Xx-q3KXIgF-34" vertex="1" connectable="0">
          <mxGeometry x="0.1266" relative="1" as="geometry">
            <mxPoint y="-11" as="offset" />
          </mxGeometry>
        </mxCell>
        <mxCell id="9p6SRBUoq3Xx-q3KXIgF-37" value="at find contract by id" style="shape=umlFrame;whiteSpace=wrap;html=1;pointerEvents=0;width=130;height=40;" parent="1" vertex="1">
          <mxGeometry x="170" y="270" width="850" height="280" as="geometry" />
        </mxCell>
        <mxCell id="9p6SRBUoq3Xx-q3KXIgF-39" value="" style="endArrow=none;dashed=1;html=1;rounded=0;entryX=0.5;entryY=1;entryDx=0;entryDy=0;" parent="1" target="9p6SRBUoq3Xx-q3KXIgF-16" edge="1">
          <mxGeometry width="50" height="50" relative="1" as="geometry">
            <mxPoint x="260" y="770" as="sourcePoint" />
            <mxPoint x="265" y="680" as="targetPoint" />
          </mxGeometry>
        </mxCell>
        <mxCell id="9p6SRBUoq3Xx-q3KXIgF-40" value="" style="endArrow=none;dashed=1;html=1;rounded=0;entryX=0.5;entryY=1;entryDx=0;entryDy=0;" parent="1" target="9p6SRBUoq3Xx-q3KXIgF-18" edge="1">
          <mxGeometry width="50" height="50" relative="1" as="geometry">
            <mxPoint x="440" y="630" as="sourcePoint" />
            <mxPoint x="439" y="520" as="targetPoint" />
          </mxGeometry>
        </mxCell>
        <mxCell id="9p6SRBUoq3Xx-q3KXIgF-41" value="" style="endArrow=none;dashed=1;html=1;rounded=0;" parent="1" target="9p6SRBUoq3Xx-q3KXIgF-17" edge="1">
          <mxGeometry width="50" height="50" relative="1" as="geometry">
            <mxPoint x="610" y="630" as="sourcePoint" />
            <mxPoint x="610" y="510" as="targetPoint" />
          </mxGeometry>
        </mxCell>
        <mxCell id="9p6SRBUoq3Xx-q3KXIgF-42" value="" style="endArrow=none;dashed=1;html=1;rounded=0;entryX=0.532;entryY=0.993;entryDx=0;entryDy=0;entryPerimeter=0;" parent="1" target="9p6SRBUoq3Xx-q3KXIgF-19" edge="1">
          <mxGeometry width="50" height="50" relative="1" as="geometry">
            <mxPoint x="789.8" y="630" as="sourcePoint" />
            <mxPoint x="790" y="490" as="targetPoint" />
          </mxGeometry>
        </mxCell>
        <mxCell id="9p6SRBUoq3Xx-q3KXIgF-43" value="" style="endArrow=none;dashed=1;html=1;rounded=0;" parent="1" target="9p6SRBUoq3Xx-q3KXIgF-20" edge="1">
          <mxGeometry width="50" height="50" relative="1" as="geometry">
            <mxPoint x="959.8" y="630" as="sourcePoint" />
            <mxPoint x="959.8" y="520" as="targetPoint" />
          </mxGeometry>
        </mxCell>
        <mxCell id="9p6SRBUoq3Xx-q3KXIgF-44" value="[id not found]" style="text;html=1;align=center;verticalAlign=middle;resizable=0;points=[];autosize=1;strokeColor=none;fillColor=none;" parent="1" vertex="1">
          <mxGeometry x="170" y="338" width="90" height="30" as="geometry" />
        </mxCell>
        <mxCell id="9p6SRBUoq3Xx-q3KXIgF-47" value="" style="endArrow=classic;html=1;rounded=0;exitX=1;exitY=0.25;exitDx=0;exitDy=0;dashed=1;" parent="1" source="9p6SRBUoq3Xx-q3KXIgF-20" edge="1">
          <mxGeometry width="50" height="50" relative="1" as="geometry">
            <mxPoint x="850" y="355" as="sourcePoint" />
            <mxPoint x="790" y="300" as="targetPoint" />
          </mxGeometry>
        </mxCell>
        <mxCell id="9p6SRBUoq3Xx-q3KXIgF-48" value="7.Return null" style="edgeLabel;html=1;align=center;verticalAlign=middle;resizable=0;points=[];" parent="9p6SRBUoq3Xx-q3KXIgF-47" vertex="1" connectable="0">
          <mxGeometry x="-0.0722" y="1" relative="1" as="geometry">
            <mxPoint y="-11" as="offset" />
          </mxGeometry>
        </mxCell>
        <mxCell id="9p6SRBUoq3Xx-q3KXIgF-49" value="" style="endArrow=classic;html=1;rounded=0;exitX=0.12;exitY=0.453;exitDx=0;exitDy=0;dashed=1;exitPerimeter=0;" parent="1" source="9p6SRBUoq3Xx-q3KXIgF-19" edge="1">
          <mxGeometry width="50" height="50" relative="1" as="geometry">
            <mxPoint x="700" y="400" as="sourcePoint" />
            <mxPoint x="610" y="332" as="targetPoint" />
          </mxGeometry>
        </mxCell>
        <mxCell id="9p6SRBUoq3Xx-q3KXIgF-50" value="8.Return null" style="edgeLabel;html=1;align=center;verticalAlign=middle;resizable=0;points=[];" parent="9p6SRBUoq3Xx-q3KXIgF-49" vertex="1" connectable="0">
          <mxGeometry x="-0.2734" y="1" relative="1" as="geometry">
            <mxPoint x="-23" y="-21" as="offset" />
          </mxGeometry>
        </mxCell>
        <mxCell id="9p6SRBUoq3Xx-q3KXIgF-51" value="" style="endArrow=classic;html=1;rounded=0;exitX=0.072;exitY=0.576;exitDx=0;exitDy=0;exitPerimeter=0;dashed=1;entryX=1.004;entryY=0.568;entryDx=0;entryDy=0;entryPerimeter=0;" parent="1" source="9p6SRBUoq3Xx-q3KXIgF-17" target="9p6SRBUoq3Xx-q3KXIgF-18" edge="1">
          <mxGeometry width="50" height="50" relative="1" as="geometry">
            <mxPoint x="530" y="370" as="sourcePoint" />
            <mxPoint x="460" y="369" as="targetPoint" />
          </mxGeometry>
        </mxCell>
        <mxCell id="9p6SRBUoq3Xx-q3KXIgF-52" value="9.Return null" style="edgeLabel;html=1;align=center;verticalAlign=middle;resizable=0;points=[];" parent="9p6SRBUoq3Xx-q3KXIgF-51" vertex="1" connectable="0">
          <mxGeometry x="0.2015" y="-3" relative="1" as="geometry">
            <mxPoint x="11" y="-18" as="offset" />
          </mxGeometry>
        </mxCell>
        <mxCell id="9p6SRBUoq3Xx-q3KXIgF-53" value="" style="endArrow=classic;html=1;rounded=0;entryX=0.976;entryY=0.461;entryDx=0;entryDy=0;entryPerimeter=0;exitX=0.1;exitY=0.627;exitDx=0;exitDy=0;exitPerimeter=0;dashed=1;" parent="1" source="9p6SRBUoq3Xx-q3KXIgF-18" target="9p6SRBUoq3Xx-q3KXIgF-16" edge="1">
          <mxGeometry width="50" height="50" relative="1" as="geometry">
            <mxPoint x="350" y="400" as="sourcePoint" />
            <mxPoint x="400" y="350" as="targetPoint" />
          </mxGeometry>
        </mxCell>
        <mxCell id="9p6SRBUoq3Xx-q3KXIgF-54" value="10.Return not found view" style="edgeLabel;html=1;align=center;verticalAlign=middle;resizable=0;points=[];" parent="9p6SRBUoq3Xx-q3KXIgF-53" vertex="1" connectable="0">
          <mxGeometry x="0.2331" relative="1" as="geometry">
            <mxPoint x="20" y="-18" as="offset" />
          </mxGeometry>
        </mxCell>
        <mxCell id="9p6SRBUoq3Xx-q3KXIgF-55" value="" style="endArrow=none;dashed=1;html=1;rounded=0;entryX=0.999;entryY=0.533;entryDx=0;entryDy=0;entryPerimeter=0;exitX=-0.003;exitY=0.536;exitDx=0;exitDy=0;exitPerimeter=0;" parent="1" source="9p6SRBUoq3Xx-q3KXIgF-37" target="9p6SRBUoq3Xx-q3KXIgF-37" edge="1">
          <mxGeometry width="50" height="50" relative="1" as="geometry">
            <mxPoint x="170" y="430" as="sourcePoint" />
            <mxPoint x="220" y="380" as="targetPoint" />
          </mxGeometry>
        </mxCell>
        <mxCell id="9p6SRBUoq3Xx-q3KXIgF-56" value="[id found]" style="text;html=1;align=center;verticalAlign=middle;resizable=0;points=[];autosize=1;strokeColor=none;fillColor=none;" parent="1" vertex="1">
          <mxGeometry x="180" y="460" width="70" height="30" as="geometry" />
        </mxCell>
        <mxCell id="9p6SRBUoq3Xx-q3KXIgF-57" value="" style="endArrow=classic;html=1;rounded=0;entryX=0.867;entryY=0.879;entryDx=0;entryDy=0;entryPerimeter=0;exitX=0.167;exitY=0.94;exitDx=0;exitDy=0;exitPerimeter=0;dashed=1;" parent="1" source="9p6SRBUoq3Xx-q3KXIgF-20" target="9p6SRBUoq3Xx-q3KXIgF-19" edge="1">
          <mxGeometry width="50" height="50" relative="1" as="geometry">
            <mxPoint x="850" y="420" as="sourcePoint" />
            <mxPoint x="900" y="370" as="targetPoint" />
          </mxGeometry>
        </mxCell>
        <mxCell id="9p6SRBUoq3Xx-q3KXIgF-58" value="11.Return result" style="edgeLabel;html=1;align=center;verticalAlign=middle;resizable=0;points=[];" parent="9p6SRBUoq3Xx-q3KXIgF-57" vertex="1" connectable="0">
          <mxGeometry x="0.3333" y="-1" relative="1" as="geometry">
            <mxPoint x="22" y="-16" as="offset" />
          </mxGeometry>
        </mxCell>
        <mxCell id="9p6SRBUoq3Xx-q3KXIgF-59" value="" style="endArrow=classic;html=1;rounded=0;entryX=0.968;entryY=0.914;entryDx=0;entryDy=0;entryPerimeter=0;dashed=1;" parent="1" target="9p6SRBUoq3Xx-q3KXIgF-17" edge="1">
          <mxGeometry width="50" height="50" relative="1" as="geometry">
            <mxPoint x="790" y="473" as="sourcePoint" />
            <mxPoint x="615" y="459.67" as="targetPoint" />
          </mxGeometry>
        </mxCell>
        <mxCell id="9p6SRBUoq3Xx-q3KXIgF-60" value="12.Return result" style="edgeLabel;html=1;align=center;verticalAlign=middle;resizable=0;points=[];" parent="9p6SRBUoq3Xx-q3KXIgF-59" vertex="1" connectable="0">
          <mxGeometry x="0.3333" y="-1" relative="1" as="geometry">
            <mxPoint x="27" y="-9" as="offset" />
          </mxGeometry>
        </mxCell>
        <mxCell id="9p6SRBUoq3Xx-q3KXIgF-61" value="" style="endArrow=classic;html=1;rounded=0;dashed=1;" parent="1" edge="1">
          <mxGeometry width="50" height="50" relative="1" as="geometry">
            <mxPoint x="610" y="490" as="sourcePoint" />
            <mxPoint x="440" y="490" as="targetPoint" />
          </mxGeometry>
        </mxCell>
        <mxCell id="9p6SRBUoq3Xx-q3KXIgF-62" value="13.Return result" style="edgeLabel;html=1;align=center;verticalAlign=middle;resizable=0;points=[];" parent="9p6SRBUoq3Xx-q3KXIgF-61" vertex="1" connectable="0">
          <mxGeometry x="0.3333" y="-1" relative="1" as="geometry">
            <mxPoint x="27" y="-9" as="offset" />
          </mxGeometry>
        </mxCell>
        <mxCell id="9p6SRBUoq3Xx-q3KXIgF-63" value="" style="endArrow=classic;html=1;rounded=0;dashed=1;entryX=0.87;entryY=0.686;entryDx=0;entryDy=0;entryPerimeter=0;" parent="1" target="9p6SRBUoq3Xx-q3KXIgF-16" edge="1">
          <mxGeometry width="50" height="50" relative="1" as="geometry">
            <mxPoint x="440" y="510" as="sourcePoint" />
            <mxPoint x="275" y="510" as="targetPoint" />
          </mxGeometry>
        </mxCell>
        <mxCell id="9p6SRBUoq3Xx-q3KXIgF-64" value="14.Return valid&amp;nbsp; view" style="edgeLabel;html=1;align=center;verticalAlign=middle;resizable=0;points=[];" parent="9p6SRBUoq3Xx-q3KXIgF-63" vertex="1" connectable="0">
          <mxGeometry x="0.3333" y="-1" relative="1" as="geometry">
            <mxPoint x="27" y="-19" as="offset" />
          </mxGeometry>
        </mxCell>
        <mxCell id="9p6SRBUoq3Xx-q3KXIgF-69" value="" style="endArrow=classic;html=1;rounded=0;exitX=0.125;exitY=0.833;exitDx=0;exitDy=0;exitPerimeter=0;dashed=1;" parent="1" source="9p6SRBUoq3Xx-q3KXIgF-16" edge="1">
          <mxGeometry width="50" height="50" relative="1" as="geometry">
            <mxPoint x="250" y="580" as="sourcePoint" />
            <mxPoint x="100" y="590" as="targetPoint" />
          </mxGeometry>
        </mxCell>
        <mxCell id="9p6SRBUoq3Xx-q3KXIgF-70" value="15.Display view" style="edgeLabel;html=1;align=center;verticalAlign=middle;resizable=0;points=[];" parent="9p6SRBUoq3Xx-q3KXIgF-69" vertex="1" connectable="0">
          <mxGeometry x="0.0922" relative="1" as="geometry">
            <mxPoint x="-1" y="-20" as="offset" />
          </mxGeometry>
        </mxCell>
        <mxCell id="ASNKuhLpxBuA2o_GlbZA-1" value="" style="endArrow=classic;html=1;rounded=0;entryX=0.267;entryY=0.091;entryDx=0;entryDy=0;entryPerimeter=0;" edge="1" parent="1" target="9p6SRBUoq3Xx-q3KXIgF-16">
          <mxGeometry width="50" height="50" relative="1" as="geometry">
            <mxPoint x="100" y="189" as="sourcePoint" />
            <mxPoint x="650" y="300" as="targetPoint" />
          </mxGeometry>
        </mxCell>
        <mxCell id="ASNKuhLpxBuA2o_GlbZA-2" value="2.Click button &#39;Select&#39;" style="edgeLabel;html=1;align=center;verticalAlign=middle;resizable=0;points=[];" vertex="1" connectable="0" parent="ASNKuhLpxBuA2o_GlbZA-1">
          <mxGeometry x="-0.2953" y="-2" relative="1" as="geometry">
            <mxPoint x="14" y="9" as="offset" />
          </mxGeometry>
        </mxCell>
      </root>
    </mxGraphModel>
  </diagram>
</mxfile>
